<?xml version="1.0" standalone="no"?>
<!DOCTYPE svg PUBLIC "-//W3C//DTD SVG 20010904//EN"
 "http://www.w3.org/TR/2001/REC-SVG-20010904/DTD/svg10.dtd">
<svg version="1.0" xmlns="http://www.w3.org/2000/svg"
 width="700.000000pt" height="700.000000pt" viewBox="0 0 700.000000 700.000000"
 preserveAspectRatio="xMidYMid meet">
<metadata>
Created by potrace 1.14, written by Peter Selinger 2001-2017
</metadata>
<g transform="translate(0.000000,700.000000) scale(0.100000,-0.100000)"
fill="#000000" stroke="none">
<path d="M3000 6953 c-11 -27 -119 -268 -239 -538 l-218 -490 479 -3 c263 -1
693 -1 956 0 l479 3 -238 535 -238 535 -480 3 -480 2 -21 -47z"/>
<path d="M88 5058 c-43 -9 -75 -47 -83 -100 -4 -24 -5 -125 -3 -225 3 -166 5
-184 24 -210 11 -15 32 -34 45 -40 35 -18 6823 -18 6858 0 13 6 34 25 45 40
19 26 21 44 24 225 3 219 -4 261 -51 296 l-28 21 -3399 0 c-1869 0 -3413 -3
-3432 -7z"/>
<path d="M720 3680 l0 -300 425 0 426 0 -3 -122 -3 -123 -423 0 -422 0 0 -240
0 -240 425 3 425 2 0 -125 0 -125 -425 2 -425 3 0 -242 0 -243 425 0 425 0 0
-120 0 -120 -425 0 -425 0 0 -299 0 -299 858 -7 c471 -4 922 -5 1001 -1 80 3
945 6 1923 6 l1778 0 0 300 0 300 -425 0 -425 0 0 120 0 120 425 0 425 0 0
243 0 242 -425 -3 -425 -2 0 125 0 125 425 -2 425 -3 0 240 0 240 -422 0 -423
0 -3 123 -3 122 426 0 425 0 0 300 0 300 -2780 0 -2780 0 0 -300z m3016 -663
c3 -164 43 -288 125 -380 22 -26 86 -82 142 -125 268 -208 363 -397 336 -669
-34 -336 -247 -592 -593 -709 -91 -31 -103 -30 -37 2 78 39 165 125 201 197
38 79 55 186 41 261 -19 102 -37 127 -223 301 -71 67 -86 100 -97 218 l-6 68
-68 -56 c-127 -105 -162 -181 -156 -343 4 -82 2 -96 -14 -106 -38 -24 -161 71
-174 135 -3 16 -11 28 -17 26 -19 -6 -93 -123 -117 -184 -18 -47 -23 -78 -23
-163 -1 -95 2 -111 27 -165 42 -90 135 -177 225 -210 51 -19 13 -18 -62 1 -91
23 -222 88 -303 150 -253 194 -342 503 -241 833 29 97 80 192 161 304 l72 99
7 -46 c13 -93 77 -169 208 -247 88 -52 132 -56 168 -13 23 27 24 31 16 123
-33 359 23 495 291 718 55 45 102 83 105 83 3 0 6 -46 6 -103z"/>
<path d="M71 587 c-13 -6 -34 -25 -45 -40 -20 -27 -21 -41 -21 -247 0 -206 1
-220 21 -247 11 -15 36 -33 55 -40 49 -17 6789 -17 6838 0 19 7 44 25 55 40
20 27 21 41 21 247 0 206 -1 220 -21 247 -11 15 -32 34 -45 40 -35 18 -6823
18 -6858 0z"/>
</g>
</svg>
